<?xml version="1.0" encoding="iso-8859-1"?>
<!-- Generator: Adobe Illustrator 19.0.0, SVG Export Plug-In . SVG Version: 6.00 Build 0)  -->
<svg version="1.1" id="Capa_1" xmlns="http://www.w3.org/2000/svg" xmlns:xlink="http://www.w3.org/1999/xlink" x="0px" y="0px"
	 viewBox="0 0 56 56" style="enable-background:new 0 0 56 56;" xml:space="preserve">
<g>
	<g>
	</g>
	<g>
		<path d="M37,0H9C6.554,0,4.521,1.768,4.092,4.092C1.768,4.521,0,6.554,0,9v42c0,2.757,2.243,5,5,5h28
			c2.446,0,4.479-1.768,4.908-4.092C40.232,51.479,42,49.446,42,47V5C42,2.243,39.757,0,37,0z M36,51c0,1.654-1.346,3-3,3H5
			c-1.654,0-3-1.346-3-3V9c0-1.654,1.346-3,3-3h28c1.654,0,3,1.346,3,3V51z M40,47c0,1.302-0.839,2.402-2,2.816V9
			c0-2.757-2.243-5-5-5H6.184C6.598,2.839,7.698,2,9,2h28c1.654,0,3,1.346,3,3V47z"/>
		<path d="M19,18c2.757,0,5-2.243,5-5s-2.243-5-5-5s-5,2.243-5,5S16.243,18,19,18z M19,10c1.654,0,3,1.346,3,3s-1.346,3-3,3
			s-3-1.346-3-3S17.346,10,19,10z"/>
		<rect x="6" y="20" width="26" height="2"/>
		<rect x="6" y="24" width="26" height="2"/>
		<rect x="10" y="28" width="22" height="2"/>
		<rect x="10" y="32" width="22" height="2"/>
		<rect x="10" y="36" width="22" height="2"/>
		<rect x="10" y="40" width="22" height="2"/>
		<rect x="6" y="46" width="8" height="2"/>
		<rect x="24" y="46" width="8" height="2"/>
		<rect x="6" y="28" width="2" height="2"/>
		<rect x="6" y="32" width="2" height="2"/>
		<rect x="6" y="36" width="2" height="2"/>
		<rect x="6" y="40" width="2" height="2"/>
		<path d="M56,29v-8c0-1.654-1.346-3-3-3h-1v-1c0-0.552-0.448-1-1-1h-4c-0.552,0-1,0.448-1,1v36c0,0.265,0.105,0.52,0.293,0.707l2,2
			C48.488,55.902,48.744,56,49,56s0.512-0.098,0.707-0.293l2-2C51.895,53.52,52,53.265,52,53V20h1c0.551,0,1,0.449,1,1v7.764
			l-0.895,1.789c-0.141,0.282-0.141,0.613,0,0.895L54,33.236V36h2v-3c0-0.155-0.036-0.309-0.105-0.447L55.118,31l0.776-1.553
			C55.964,29.308,56,29.155,56,29z M50,18v16h-2V18H50z M49,53.586l-1-1V36h2v16.586L49,53.586z"/>
	</g>
</g>
<g>
</g>
<g>
</g>
<g>
</g>
<g>
</g>
<g>
</g>
<g>
</g>
<g>
</g>
<g>
</g>
<g>
</g>
<g>
</g>
<g>
</g>
<g>
</g>
<g>
</g>
<g>
</g>
<g>
</g>
</svg>
