<?xml version="1.0" encoding="iso-8859-1"?>
<!-- Generator: Adobe Illustrator 19.0.0, SVG Export Plug-In . SVG Version: 6.00 Build 0)  -->
<svg version="1.1" id="Capa_1" xmlns="http://www.w3.org/2000/svg" xmlns:xlink="http://www.w3.org/1999/xlink" x="0px" y="0px"
	 viewBox="0 0 64 64" style="enable-background:new 0 0 64 64;" xml:space="preserve">
<g>
	<g id="success-leader-winner-king-goal_1_">
		<path d="M32,19c3.309,0,6-2.691,6-6c0-1.193-0.354-2.302-0.956-3.237l0.946-6.621c0.056-0.391-0.123-0.777-0.457-0.988
			c-0.333-0.209-0.758-0.205-1.088,0.014L34.388,3.54l-1.493-2.987c-0.339-0.678-1.45-0.678-1.789,0L29.612,3.54l-2.058-1.372
			c-0.329-0.22-0.755-0.224-1.088-0.014s-0.513,0.597-0.457,0.988l0.946,6.621C26.354,10.698,26,11.807,26,13
			C26,16.309,28.691,19,32,19z M32,17c-2.206,0-4-1.794-4-4s1.794-4,4-4s4,1.794,4,4S34.206,17,32,17z M29.445,5.832
			c0.239,0.16,0.534,0.208,0.812,0.134c0.277-0.073,0.509-0.263,0.638-0.519L32,3.236l1.105,2.211
			c0.128,0.256,0.361,0.446,0.638,0.519c0.279,0.075,0.573,0.024,0.812-0.134l1.139-0.759l-0.415,2.908C34.335,7.363,33.21,7,32,7
			s-2.335,0.363-3.278,0.981l-0.415-2.908L29.445,5.832z"/>
		<path d="M45,58c0-0.552-0.448-1.044-1-1.044h-3.087l-0.857-9.385c0.275-0.061,0.649-0.089,1.005-0.048
			c0.409,0.048,0.84,0.211,1.298,0.377l0.301,0.112c1.329,0.472,2.712,0.791,4.114,0.946c0.138,0.015,0.348,0.039,0.596,0.039
			c0.536,0,1.248-0.108,1.786-0.638c0.336-0.331,0.504-0.73,0.613-1.04c0.279-0.794,0.4-1.66,0.351-2.501
			c-0.241-4.101-1.645-7.849-4.171-11.141c-0.699-0.911-1.477-1.766-2.229-2.592c-1.25-1.375-2.418-2.696-3.239-4.205l5.967-2.984
			c0.096-0.048,0.184-0.111,0.26-0.187l7-7c0.391-0.391,0.391-1.023,0-1.414l-4-4c-0.391-0.391-1.023-0.391-1.414,0l-6.847,6.824
			l-7.627,2.838h-3.638l-7.627-2.838l-6.847-6.836c-0.391-0.391-1.023-0.385-1.414,0.006l-4,4.003c-0.391,0.391-0.391,1.025,0,1.415
			l7,7.001c0.076,0.076,0.164,0.14,0.26,0.188l5.431,2.715c-0.078,3.12-1.937,6.496-3.609,9.499l-0.415,0.746
			c-1.991,3.6-3.53,7.443-4.577,11.422c-0.122,0.464,0.103,0.949,0.536,1.156c0.139,0.066,0.286,0.098,0.431,0.098
			c0.31,0,0.612-0.144,0.805-0.407c0.773-1.048,1.715-1.942,2.801-2.657c0.304-0.2,0.643-0.424,0.996-0.421
			c0.385,0.01,0.818,0.388,1.277,0.787c0.199,0.173,0.399,0.346,0.602,0.501c0.804,0.615,1.437,0.727,2.068,0.723l-0.811,8.898H21
			c-0.552,0-1,0.492-1,1.044v3.956H0v2h21c0.552,0,1-0.403,1-0.956v-4.044h2h6h4h6h3V63c0,0.552,0.448,0.956,1,0.956h20v-2H45V58z
			 M44.361,34.894c2.279,2.968,3.544,6.347,3.762,10.04c0.034,0.58-0.049,1.175-0.242,1.722c-0.074,0.211-0.117,0.265-0.128,0.276
			c-0.005,0.004-0.12,0.108-0.76,0.038c-1.248-0.138-2.48-0.421-3.665-0.841l-0.285-0.103c-0.545-0.199-1.109-0.404-1.752-0.479
			c-0.358-0.042-0.884-0.048-1.418,0.04L39,36v-7.656c0.911,1.508,2.086,2.816,3.24,4.084
			C42.964,33.226,43.713,34.049,44.361,34.894z M33.557,22.956L32,27.107l-1.557-4.152L33.557,22.956L33.557,22.956z M23.044,45.746
			c-0.17-0.13-0.336-0.276-0.503-0.421c-0.639-0.556-1.434-1.248-2.536-1.277c-0.864-0.041-1.602,0.389-2.15,0.75
			c-0.134,0.088-0.266,0.179-0.396,0.272c0.88-2.5,1.969-4.926,3.251-7.247l0.412-0.741c1.554-2.789,3.43-6.165,3.813-9.496
			L25,27.618l0.003,8.292L24.08,46.074C23.612,46.104,23.448,46.054,23.044,45.746z M31.111,56.956L32,48.508l0.889,8.447h-1.778
			V56.956z M34.9,56.956l-1.906-18.082c-0.054-0.509-0.483-0.884-0.995-0.884s-0.941,0.37-0.995,0.879L29.1,56.956h-4.005L27,36v-9
			c0-0.379-0.214-0.725-0.553-0.895l-7.855-3.927L12.414,16L15,13.414l6.293,6.293c0.101,0.101,0.222,0.179,0.356,0.229l6.427,2.41
			l-0.012,0.005l3,8C31.21,30.741,31.583,31,32,31s0.79-0.259,0.937-0.649l3-8l-0.012-0.005l6.427-2.41
			c0.134-0.05,0.255-0.128,0.356-0.229L49,13.414L51.586,16l-6.178,6.178l-7.855,3.927C37.214,26.275,37,26.621,37,27l0.004,9.069
			l1.901,20.887H34.9z"/>
		<path d="M59,25v-2c-4.962,0-9,3.956-9,8.956h2C52,27.956,55.14,25,59,25z"/>
		<path d="M11,59.956h2C13,43.956,7.29,32,0,32v2C5.962,34,11,45.956,11,59.956z"/>
		<path d="M8,23v2c3.86,0,7,3.956,7,7.956h2C17,27.956,12.962,23,8,23z"/>
		<path d="M52,55.956h2C54,46.956,58.486,39,64,39v-2C57.271,37,52,44.956,52,55.956z"/>
		<path d="M63,29v-2c-4.962,0-9,3.956-9,7.956h2C56,31.956,59.14,29,63,29z"/>
		<path d="M4,57.956h2C6,54.956,3.309,52,0,52v2C2.206,54,4,55.956,4,57.956z"/>
		<rect x="57" y="3" width="2" height="2"/>
		<rect x="45" y="27" width="2" height="2"/>
		<rect x="55" y="9" width="2" height="2"/>
		<rect x="61" y="9" width="2" height="2"/>
		<rect x="59" y="18" width="2" height="2"/>
		<rect x="61" y="23" width="2" height="2"/>
		<rect x="59" y="52" width="2" height="2"/>
		<rect x="52" y="38" width="2" height="2"/>
		<rect x="52" y="58" width="2" height="2"/>
		<rect x="47" y="5" width="2" height="2"/>
		<rect x="12" y="5" width="2" height="2"/>
		<rect x="6" y="11" width="2" height="2"/>
		<rect x="4" y="5" width="2" height="2"/>
		<rect x="15" y="35" width="2" height="2"/>
		<rect x="7" y="29" width="2" height="2"/>
		<rect x="1" y="18" width="2" height="2"/>
		<rect x="1" y="42" width="2" height="2"/>
	</g>
	<g id="Layer_1_27_">
	</g>
</g>
<g>
</g>
<g>
</g>
<g>
</g>
<g>
</g>
<g>
</g>
<g>
</g>
<g>
</g>
<g>
</g>
<g>
</g>
<g>
</g>
<g>
</g>
<g>
</g>
<g>
</g>
<g>
</g>
<g>
</g>
</svg>
